# xmcd
#
# Track frame offsets:
#	150
#	27550
#	47200
#	65900
#	83587
#	100615
#	118625
#	131025
#	145685
#	166565
#	184880
#	198775
#	215665
#	233262
#	248705
#
# Disc length: 3503 seconds
#
# Revision: 6
# Processed by: cddbd v1.5.2PL0 Copyright (c) Steve Scherf et al.
# Submitted via: EasyCDDAExtractor 10.0.5.1
#
DISCID=c80dad0f
DTITLE=Various Artist - 日夲超級巨星熱門金曲
DYEAR=1982
DGENRE=Pop
TTITLE0=山口百恵 - Last Song For You
TTITLE1=Junk - 鶴戶途中
TTITLE2=渥美二郎 - 北方的春天
TTITLE3=Fukinotou   - 雨中街道的懷念
TTITLE4=野川明美 - 空港
TTITLE5=岸田智吏 - 比㪫山
TTITLE6=淺田美代子 - 幸福的一顆星
TTITLE7=五輪真弓 - 海鷗
TTITLE8=松田聖子 - 風飄飄
TTITLE9=Bang Bang - 冷雨
TTITLE10=Candies - 風
TTITLE11=南沙織 - 傷心的天使
TTITLE12=久保田早紀 - 外國人
TTITLE13=Carmen Maki - 有時像個無依的小孩
TTITLE14=細坪基佳 - 子守唄(搖籃曲)
EXTD=YEAR: 1982
EXTT0=
EXTT1=
EXTT2=
EXTT3=
EXTT4=
EXTT5=
EXTT6=
EXTT7=
EXTT8=
EXTT9=
EXTT10=
EXTT11=
EXTT12=
EXTT13=
EXTT14=
PLAYORDER=
